<svg xmlns="http://www.w3.org/2000/svg" version="1.1" xmlns:xlink="http://www.w3.org/1999/xlink" xmlns:svgjs="http://svgjs.dev/svgjs" width="1000" height="383" viewBox="0 0 1000 383"><g transform="matrix(1,0,0,1,-0.6060606060606801,0.11145493380448102)"><svg viewBox="0 0 396 152" data-background-color="#ffffff" preserveAspectRatio="xMidYMid meet" height="383" width="1000" xmlns="http://www.w3.org/2000/svg" xmlns:xlink="http://www.w3.org/1999/xlink"><g id="tight-bounds" transform="matrix(1,0,0,1,0.24000000000003752,-0.04423276746287286)"><svg viewBox="0 0 395.5199999999999 152.08846553492575" height="152.08846553492575" width="395.5199999999999"><g><svg viewBox="0 0 395.5199999999999 152.08846553492575" height="152.08846553492575" width="395.5199999999999"><g transform="matrix(1,0,0,1,0,106.12745843357004)"><svg viewBox="0 0 395.5199999999999 45.961007101355705" height="45.961007101355705" width="395.5199999999999"><g id="textblocktransform"><svg viewBox="0 0 395.5199999999999 45.961007101355705" height="45.961007101355705" width="395.5199999999999" id="textblock"><g><svg viewBox="0 0 395.5199999999999 45.961007101355705" height="45.961007101355705" width="395.5199999999999"><g transform="matrix(1,0,0,1,0,0)"><svg width="395.5199999999999" viewBox="1.37 -42.19 378.15 43.949999999999996" height="45.961007101355705" data-palette-color="#636365"><path d="M32.79-26.61L32.79-26.61 31.35-25.66Q30.03-27.61 27.92-28.75 25.81-29.88 23.34-29.88L23.34-29.88Q19.34-29.88 16.5-27.05 13.67-24.22 13.67-20.21 13.67-16.21 16.5-13.38 19.34-10.55 23.34-10.55L23.34-10.55Q25.81-10.55 27.92-11.69 30.03-12.84 31.35-14.79L31.35-14.79 32.76-13.77Q31.2-11.47 28.71-10.13 26.22-8.79 23.34-8.79L23.34-8.79Q21.02-8.79 18.91-9.69 16.8-10.6 15.26-12.13 13.72-13.67 12.82-15.78 11.91-17.9 11.91-20.21 11.91-22.53 12.82-24.65 13.72-26.76 15.26-28.3 16.8-29.83 18.91-30.74 21.02-31.64 23.34-31.64L23.34-31.64Q26.25-31.64 28.74-30.29 31.23-28.93 32.79-26.61ZM35.69-28.61L35.69-28.61 34.23-27.66Q32.42-30.3 29.55-31.85 26.68-33.4 23.34-33.4L23.34-33.4Q19.75-33.4 16.72-31.63 13.7-29.86 11.93-26.83 10.16-23.8 10.16-20.21 10.16-16.63 11.93-13.6 13.7-10.57 16.72-8.8 19.75-7.03 23.34-7.03L23.34-7.03Q26.68-7.03 29.57-8.59 32.45-10.16 34.25-12.82L34.25-12.82 35.69-11.82Q33.64-8.79 30.38-7.03 27.12-5.27 23.34-5.27L23.34-5.27Q19.29-5.27 15.84-7.28 12.4-9.28 10.4-12.72 8.4-16.16 8.4-20.21 8.4-24.27 10.4-27.71 12.4-31.15 15.84-33.15 19.29-35.16 23.34-35.16L23.34-35.16Q27.12-35.16 30.38-33.4 33.64-31.64 35.69-28.61ZM38.62-30.57L38.62-30.57 37.16-29.61Q34.86-32.98 31.21-34.95 27.56-36.91 23.34-36.91L23.34-36.91Q19.95-36.91 16.85-35.6 13.75-34.28 11.51-32.04 9.28-29.81 7.96-26.71 6.64-23.61 6.64-20.21 6.64-16.82 7.96-13.72 9.28-10.62 11.51-8.39 13.75-6.15 16.85-4.83 19.95-3.52 23.34-3.52L23.34-3.52Q27.59-3.52 31.23-5.49 34.86-7.47 37.16-10.84L37.16-10.84 38.57-9.79Q36.04-6.08 32.02-3.92 28-1.76 23.34-1.76L23.34-1.76Q18.33-1.76 14.09-4.24 9.84-6.71 7.36-10.96 4.88-15.21 4.88-20.21 4.88-25.22 7.36-29.47 9.84-33.72 14.09-36.19 18.33-38.67 23.34-38.67L23.34-38.67Q28.03-38.67 32.06-36.49 36.08-34.3 38.62-30.57ZM41.5-32.57L41.5-32.57 40.04-31.62Q37.26-35.69 32.85-38.06 28.44-40.43 23.34-40.43L23.34-40.43Q19.24-40.43 15.49-38.83 11.74-37.23 9.03-34.52 6.32-31.81 4.72-28.06 3.13-24.32 3.13-20.21 3.13-16.11 4.72-12.37 6.32-8.62 9.03-5.91 11.74-3.2 15.49-1.6 19.24 0 23.34 0L23.34 0Q28.44 0 32.86-2.39 37.28-4.79 40.06-8.86L40.06-8.86 41.48-7.79Q38.45-3.39 33.67-0.82 28.88 1.76 23.34 1.76L23.34 1.76Q18.87 1.76 14.81 0.01 10.74-1.73 7.8-4.68 4.86-7.62 3.11-11.68 1.37-15.75 1.37-20.21 1.37-24.68 3.11-28.75 4.86-32.81 7.8-35.75 10.74-38.7 14.81-40.44 18.87-42.19 23.34-42.19L23.34-42.19Q28.91-42.19 33.69-39.6 38.48-37.01 41.5-32.57ZM58.15-15.04L58.15-16.8 68.75-16.8Q70.85-16.8 72.31-18.12 73.78-19.43 73.78-21.83L73.78-21.83Q73.78-23.58 72.25-24.98 70.73-26.37 68.75-26.37L68.75-26.37 53.66-26.37 53.66 0 51.9 0 51.9-28.13 68.75-28.13Q71.46-28.13 73.5-26.22 75.53-24.32 75.53-21.83L75.53-21.83Q75.53-18.73 73.56-16.88 71.58-15.04 68.75-15.04L68.75-15.04 58.15-15.04ZM58.15-11.52L58.15-13.28 68.75-13.28Q72.26-13.28 74.78-15.67 77.29-18.07 77.29-21.83L77.29-21.83Q77.29-25.02 74.73-27.45 72.17-29.88 68.75-29.88L68.75-29.88 50.14-29.88 50.14 0 48.39 0 48.39-31.64 68.75-31.64Q72.9-31.64 75.97-28.7 79.05-25.76 79.05-21.83L79.05-21.83Q79.05-17.43 76.01-14.48 72.97-11.52 68.75-11.52L68.75-11.52 58.15-11.52ZM58.15-8.01L58.15-9.77 68.75-9.77Q71.99-9.77 74.75-11.33 77.51-12.89 79.16-15.67 80.81-18.46 80.81-21.83L80.81-21.83Q80.81-24.88 79.17-27.55 77.54-30.22 74.74-31.81 71.95-33.4 68.75-33.4L68.75-33.4 46.63-33.4 46.63 0 44.87 0 44.87-35.16 68.75-35.16Q71.51-35.16 74.06-34.07 76.61-32.98 78.46-31.19 80.32-29.39 81.44-26.93 82.57-24.46 82.57-21.83L82.57-21.83Q82.57-17.55 80.61-14.37 78.66-11.18 75.36-9.52L75.36-9.52 79.05 0 77.17 0 73.68-8.81Q73.02-8.59 72.14-8.37L72.14-8.37 75.44 0 73.56 0 70.33-8.08Q69.58-8.01 68.75-8.01L68.75-8.01 71.85 0 69.99 0 66.92-8.01 65.33-8.01 68.28 0 66.43 0 63.45-8.01 58.15-8.01ZM57.18-22.85L57.18 0 55.42 0 55.42-24.61 68.75-24.61Q70.11-24.61 71.07-23.79 72.02-22.97 72.02-21.83L72.02-21.83Q72.02-18.55 68.75-18.55L68.75-18.55 58.15-18.55 58.15-20.31 68.75-20.31Q70.26-20.31 70.26-21.83L70.26-21.83Q70.26-22.24 69.81-22.55 69.36-22.85 68.75-22.85L68.75-22.85 57.18-22.85ZM107.29-11.87L118.35-35.16 120.11-35.16 109.05-11.87 109.05 0 107.29 0 107.29-11.87ZM103.78-11.87L114.84-35.16 116.6-35.16 105.54-11.87 105.54 0 103.78 0 103.78-11.87ZM100.26-11.87L111.32-35.16 113.08-35.16 102.02-11.87 102.02 0 100.26 0 100.26-11.87ZM97.6-13.65L107.81-35.16 109.57-35.16 98.51-11.87 98.51 0 96.75 0 96.75-11.87 84.96-35.16 86.71-35.16 97.6-13.65ZM98.09-16.65L88.5-35.16 90.25-35.16 98.97-18.58 98.09-16.65ZM99.82-20.51L92.01-35.16 93.79-35.16 100.73-22.44 99.82-20.51ZM101.61-24.34L95.58-35.16 97.33-35.16 102.49-26.27 101.61-24.34ZM136.76-14.79L136.76-16.55 144.21-16.55Q146.4-16.55 147.94-17.87 149.48-19.19 149.48-21.58L149.48-21.58Q149.48-23.44 147.87-24.9 146.26-26.37 144.21-26.37L144.21-26.37 131.9-26.37 131.9 0 130.14 0 130.14-28.13 144.21-28.13Q147.01-28.13 149.13-26.15 151.24-24.17 151.24-21.58L151.24-21.58Q151.24-18.48 149.19-16.64 147.14-14.79 144.21-14.79L144.21-14.79 136.76-14.79ZM136.76-11.28L136.76-13.04 144.21-13.04Q147.82-13.04 150.41-15.43 153-17.82 153-21.58L153-21.58Q153-24.88 150.36-27.38 147.72-29.88 144.21-29.88L144.21-29.88 128.39-29.88 128.39 0 126.63 0 126.63-31.64 144.21-31.64Q148.45-31.64 151.6-28.63 154.75-25.61 154.75-21.58L154.75-21.58Q154.75-17.19 151.64-14.23 148.53-11.28 144.21-11.28L144.21-11.28 136.76-11.28ZM136.76-7.76L136.76-9.52 144.21-9.52Q147.5-9.52 150.32-11.08 153.14-12.65 154.83-15.43 156.51-18.21 156.51-21.58L156.51-21.58Q156.51-24.68 154.84-27.42 153.17-30.15 150.32-31.77 147.48-33.4 144.21-33.4L144.21-33.4 124.87-33.4 124.87 0 123.11 0 123.11-35.16 144.21-35.16Q146.99-35.16 149.59-34.06 152.19-32.96 154.09-31.12 156-29.27 157.13-26.77 158.27-24.27 158.27-21.58L158.27-21.58Q158.27-18.43 157.15-15.8 156.02-13.16 154.09-11.41 152.17-9.67 149.61-8.72 147.06-7.76 144.21-7.76L144.21-7.76 136.76-7.76ZM135.42-22.85L135.42 0 133.66 0 133.66-24.61 144.21-24.61Q145.65-24.61 146.68-23.72 147.72-22.83 147.72-21.58L147.72-21.58Q147.72-18.31 144.21-18.31L144.21-18.31 136.76-18.31 136.76-20.07 144.21-20.07Q145.96-20.07 145.96-21.58L145.96-21.58Q145.96-22.12 145.45-22.49 144.94-22.85 144.21-22.85L144.21-22.85 135.42-22.85ZM168.42 0L168.42-25.42 170.18-25.42 170.18 0 168.42 0ZM187.76-33.4L161.39-33.4 161.39-35.16 187.76-35.16 187.76-33.4ZM187.76-29.88L161.39-29.88 161.39-31.64 187.76-31.64 187.76-29.88ZM187.76-26.37L161.39-26.37 161.39-28.13 187.76-28.13 187.76-26.37ZM178.97 0L178.97-25.42 180.73-25.42 180.73 0 178.97 0ZM175.45 0L175.45-25.42 177.21-25.42 177.21 0 175.45 0ZM171.94 0L171.94-25.42 173.7-25.42 173.7 0 171.94 0ZM205.05-22.55Q202.99-20.48 202.99-17.58 202.99-14.67 205.05-12.61 207.12-10.55 210.02-10.55 212.93-10.55 214.99-12.61 217.05-14.67 217.05-17.58 217.05-20.48 214.99-22.55 212.93-24.61 210.02-24.61 207.12-24.61 205.05-22.55ZM203.81-11.36Q201.23-13.94 201.23-17.58 201.23-21.22 203.81-23.79 206.38-26.37 210.02-26.37 213.66-26.37 216.24-23.79 218.81-21.22 218.81-17.58 218.81-13.94 216.24-11.36 213.66-8.79 210.02-8.79 206.38-8.79 203.81-11.36ZM202.56-25.02Q199.47-21.92 199.47-17.58 199.47-13.23 202.56-10.13 205.65-7.03 210.02-7.03 214.39-7.03 217.48-10.13 220.57-13.23 220.57-17.58 220.57-21.92 217.48-25.02 214.39-28.13 210.02-28.13 205.65-28.13 202.56-25.02ZM199.36-11.4Q197.72-14.23 197.72-17.58 197.72-20.92 199.36-23.75 201.01-26.59 203.84-28.23 206.68-29.88 210.02-29.88 213.37-29.88 216.2-28.23 219.03-26.59 220.68-23.75 222.33-20.92 222.33-17.58 222.33-14.23 220.68-11.4 219.03-8.57 216.2-6.92 213.37-5.27 210.02-5.27 206.68-5.27 203.84-6.92 201.01-8.57 199.36-11.4ZM197.07-23.03Q195.96-20.43 195.96-17.58 195.96-14.72 197.07-12.12 198.18-9.52 200.07-7.63 201.97-5.74 204.57-4.63 207.17-3.52 210.02-3.52 212.88-3.52 215.48-4.63 218.08-5.74 219.97-7.63 221.86-9.52 222.97-12.12 224.08-14.72 224.08-17.58 224.08-20.43 222.97-23.03 221.86-25.63 219.97-27.53 218.08-29.42 215.48-30.53 212.88-31.64 210.02-31.64 207.17-31.64 204.57-30.53 201.97-29.42 200.07-27.53 198.18-25.63 197.07-23.03ZM195.46-11.43Q194.2-14.36 194.2-17.58 194.2-20.8 195.46-23.73 196.72-26.66 198.83-28.77 200.94-30.88 203.87-32.14 206.8-33.4 210.02-33.4 213.24-33.4 216.17-32.14 219.1-30.88 221.22-28.77 223.33-26.66 224.58-23.73 225.84-20.8 225.84-17.58 225.84-14.36 224.58-11.43 223.33-8.5 221.22-6.38 219.1-4.27 216.17-3.02 213.24-1.76 210.02-1.76 206.8-1.76 203.87-3.02 200.94-4.27 198.83-6.38 196.72-8.5 195.46-11.43ZM193.84-24.4Q192.44-21.14 192.44-17.58 192.44-14.01 193.84-10.75 195.23-7.5 197.58-5.14 199.94-2.78 203.2-1.39 206.46 0 210.02 0 213.59 0 216.85-1.39 220.1-2.78 222.46-5.14 224.82-7.5 226.21-10.75 227.6-14.01 227.6-17.58 227.6-21.14 226.21-24.4 224.82-27.66 222.46-30.02 220.1-32.37 216.85-33.76 213.59-35.16 210.02-35.16 206.46-35.16 203.2-33.76 199.94-32.37 197.58-30.02 195.23-27.66 193.84-24.4ZM192.22-10.07Q190.69-13.65 190.69-17.58 190.69-21.51 192.22-25.09 193.76-28.66 196.35-31.25 198.94-33.84 202.51-35.38 206.09-36.91 210.02-36.91 213.95-36.91 217.53-35.38 221.11-33.84 223.69-31.25 226.28-28.66 227.82-25.09 229.36-21.51 229.36-17.58 229.36-13.65 227.82-10.07 226.28-6.49 223.69-3.91 221.11-1.32 217.53 0.22 213.95 1.76 210.02 1.76 206.09 1.76 202.51 0.22 198.94-1.32 196.35-3.91 193.76-6.49 192.22-10.07ZM244.78 0L228.79-40.43 230.7-40.43 245.74-2.37 260.78-40.43 262.66-40.43 246.69 0 244.78 0ZM234.46-40.43L246.96-8.79 245.96-6.54 232.58-40.43 234.46-40.43ZM238.27-40.43L248.84-13.6 247.91-11.18 236.36-40.43 238.27-40.43ZM242.03-40.43L250.69-18.48 249.77-16.02 240.15-40.43 242.03-40.43ZM256.14 0L272.1-40.43 274.01-40.43 258.02 0 256.14 0ZM252.35 0L268.34-40.43 270.22-40.43 254.23 0 252.35 0ZM248.57 0L264.54-40.43 266.44-40.43 250.45 0 248.57 0ZM287.75 0L287.75-35.16 289.51-35.16 289.51 0 287.75 0ZM284.24 0L284.24-35.16 285.99-35.16 285.99 0 284.24 0ZM280.72 0L280.72-35.16 282.48-35.16 282.48 0 280.72 0ZM277.2 0L277.2-35.16 278.96-35.16 278.96 0 277.2 0ZM302.89-35.16L302.89 0 301.13 0 301.13-35.16 302.89-35.16ZM299.37-35.16L299.37 0 297.61 0 297.61-35.16 299.37-35.16ZM295.85-35.16L295.85 0 294.1 0 294.1-35.16 295.85-35.16ZM306.4-13.21L306.4-8.79 323.22-8.79 323.22-7.03 306.4-7.03 306.4-5.27 323.22-5.27 323.22-3.52 306.4-3.52 306.4-1.76 323.22-1.76 323.22 0 304.64 0 304.64-35.16 323.22-35.16 323.22-33.4 306.4-33.4 306.4-31.64 323.22-31.64 323.22-29.88 306.4-29.88 306.4-28.13 323.22-28.13 323.22-26.37 306.4-26.37 306.4-22 322.25-22 322.25-20.24 306.4-20.24 306.4-18.48 322.25-18.48 322.25-16.72 306.4-16.72 306.4-14.97 322.25-14.97 322.25-13.21 306.4-13.21ZM362.12-11.32Q362.62-11.28 363.36-11.28 364.09-11.28 364.59-11.32 365.09-11.35 365.63-11.51 366.16-11.67 366.48-11.94 366.8-12.21 367.01-12.71 367.21-13.21 367.21-13.92L367.21-13.92 367.21-35.16 368.97-35.16 368.97-13.92Q368.97-9.52 363.36-9.52L363.36-9.52Q360.52-9.52 359.16-10.6L359.16-10.6Q358.96-9.64 358.69-8.91L358.69-8.91Q360.55-7.76 363.36-7.76L363.36-7.76Q366.63-7.76 368.68-9.29 370.73-10.82 370.73-13.92L370.73-13.92 370.73-35.16 372.49-35.16 372.49-13.92Q372.49-10.08 369.91-8.04 367.34-6.01 363.36-6.01L363.36-6.01Q360.26-6.01 358.03-7.28L358.03-7.28Q357.67-6.49 357.18-5.79L357.18-5.79Q359.84-4.25 363.36-4.25L363.36-4.25Q365.63-4.25 367.59-4.88 369.56-5.52 371.05-6.71 372.54-7.91 373.39-9.77 374.25-11.62 374.25-13.92L374.25-13.92 374.25-35.16 376-35.16 376-13.92Q376-10.4 374.28-7.76 372.56-5.13 369.72-3.81 366.87-2.49 363.36-2.49L363.36-2.49Q359.25-2.49 356.13-4.37L356.13-4.37Q355.45-3.59 354.88-3.1L354.88-3.1Q358.52-0.73 363.36-0.73L363.36-0.73Q367.34-0.73 370.58-2.29 373.83-3.86 375.8-6.9 377.76-9.94 377.76-13.92L377.76-13.92 377.76-35.16 379.52-35.16 379.52-13.92Q379.52-10.55 378.24-7.71 376.96-4.88 374.77-2.98 372.58-1.07 369.63-0.02 366.68 1.03 363.36 1.03L363.36 1.03Q357.55 1.03 353.42-1.95L353.42-1.95Q349.15 1.03 343.34 1.03L343.34 1.03Q340.02 1.03 337.06-0.02 334.11-1.07 331.92-2.98 329.74-4.88 328.46-7.71 327.17-10.55 327.17-13.92L327.17-13.92 327.17-35.16 328.93-35.16 328.93-13.92Q328.93-10.91 330.07-8.4 331.2-5.88 333.16-4.22 335.11-2.56 337.73-1.65 340.36-0.73 343.34-0.73L343.34-0.73Q347.22-0.73 350.54-2.5 353.86-4.27 355.8-7.31 357.74-10.35 357.74-13.92L357.74-13.92 357.74-35.16 359.5-35.16 359.5-13.92Q359.5-13.21 359.71-12.71 359.91-12.21 360.23-11.94 360.55-11.67 361.09-11.51 361.62-11.35 362.12-11.32ZM347.19-35.16L348.95-35.16 348.95-13.92Q348.95-9.52 343.34-9.52 337.72-9.52 337.72-13.92L337.72-13.92 337.72-35.16 339.48-35.16 339.48-13.92Q339.48-13.21 339.69-12.71 339.89-12.21 340.21-11.94 340.53-11.67 341.07-11.51 341.6-11.35 342.1-11.32 342.6-11.28 343.34-11.28 344.07-11.28 344.57-11.32 345.07-11.35 345.61-11.51 346.14-11.67 346.46-11.94 346.78-12.21 346.99-12.71 347.19-13.21 347.19-13.92L347.19-13.92 347.19-35.16ZM350.71-35.16L352.47-35.16 352.47-13.92Q352.47-10.08 349.89-8.04 347.32-6.01 343.34-6.01 339.36-6.01 336.78-8.04 334.21-10.08 334.21-13.92L334.21-13.92 334.21-35.16 335.96-35.16 335.96-13.92Q335.96-10.82 338.01-9.29 340.07-7.76 343.34-7.76 346.61-7.76 348.66-9.29 350.71-10.82 350.71-13.92L350.71-13.92 350.71-35.16ZM354.23-35.16L355.98-35.16 355.98-13.92Q355.98-10.4 354.26-7.76 352.54-5.13 349.7-3.81 346.85-2.49 343.34-2.49 339.82-2.49 336.98-3.81 334.13-5.13 332.41-7.76 330.69-10.4 330.69-13.92L330.69-13.92 330.69-35.16 332.45-35.16 332.45-13.92Q332.45-11.62 333.3-9.77 334.16-7.91 335.65-6.71 337.14-5.52 339.1-4.88 341.07-4.25 343.34-4.25 345.61-4.25 347.57-4.88 349.54-5.52 351.03-6.71 352.52-7.91 353.37-9.77 354.23-11.62 354.23-13.92L354.23-13.92 354.23-35.16Z" opacity="1" transform="matrix(1,0,0,1,0,0)" fill="#ffffff" class="wordmark-text-0" data-fill-palette-color="primary" id="text-0"></path></svg></g></svg></g></svg></g></svg></g><g transform="matrix(1,0,0,1,152.96198237271796,0)"><svg viewBox="0 0 89.59603525456399 95.27716772111039" height="95.27716772111039" width="89.59603525456399"><g><svg xmlns="http://www.w3.org/2000/svg" xmlns:xlink="http://www.w3.org/1999/xlink" version="1.1" x="0" y="0" viewBox="14.563 12.315999999999999 70.87400000000001 75.368" enable-background="new 0 0 100 100" xml:space="preserve" height="95.27716772111039" width="89.59603525456399" class="icon-icon-0" data-fill-palette-color="accent" id="icon-0"><path d="M68.475 12.316l-6.903 18.526v18.588c1.769 0.65 3.038 2.336 3.038 4.33 0 2.557-2.073 4.629-4.629 4.629-2.557 0-4.629-2.072-4.629-4.629 0-2.101 1.409-3.854 3.327-4.42V30.329H58.7l-0.021-0.009 6.709-18.004h-7.515l-9.175 22.734v25.29c2.068 0.462 3.616 2.302 3.616 4.51 0 2.556-2.072 4.628-4.629 4.628-2.556 0-4.628-2.072-4.628-4.628 0-1.836 1.076-3.407 2.625-4.155h-0.026V34.581v-0.12l0.033-0.082 8.904-22.063H44.518l-9.175 22.734v35.372c1.481 0.771 2.504 2.303 2.504 4.089 0 2.557-2.072 4.629-4.629 4.629-2.556 0-4.628-2.072-4.628-4.629 0-2.242 1.594-4.11 3.711-4.536V34.581v-0.12l0.032-0.082 8.905-22.063H14.563v75.367h7.98V26.045c-1.835-0.607-3.168-2.315-3.168-4.354 0-2.545 2.063-4.606 4.607-4.606s4.607 2.062 4.607 4.606c0 1.891-1.141 3.51-2.769 4.221v61.772h32.713V73.793h0.029l15.158-15.392V37.375c-1.837-0.613-3.169-2.328-3.169-4.37 0-2.557 2.072-4.629 4.629-4.629 2.556 0 4.628 2.072 4.628 4.629 0 2.053-1.346 3.772-3.195 4.379v22.145l0.029 0.029L61.427 75.009v12.675h10.704v-5.62c-1.973-0.53-3.432-2.313-3.432-4.452 0-2.556 2.073-4.628 4.629-4.628 2.557 0 4.629 2.072 4.629 4.628 0 2.09-1.394 3.835-3.295 4.41v5.662h10.775V12.316H68.475z" fill="#ffffff" data-fill-palette-color="accent"></path></svg></g></svg></g><g></g></svg></g><defs></defs></svg><rect width="395.5199999999999" height="152.08846553492575" fill="none" stroke="none" visibility="hidden"></rect></g></svg></g></svg>