<?xml version="1.0" standalone="no"?>
<!DOCTYPE svg PUBLIC "-//W3C//DTD SVG 20010904//EN"
 "http://www.w3.org/TR/2001/REC-SVG-20010904/DTD/svg10.dtd">
<svg version="1.0" xmlns="http://www.w3.org/2000/svg"
 width="3720.000000pt" height="3577.000000pt" viewBox="0 0 3720.000000 3577.000000"
 preserveAspectRatio="xMidYMid meet">

<g transform="translate(0.000000,3577.000000) scale(0.100000,-0.100000)"
fill="#000000" stroke="none">
<path d="M5310 19790 c-187 -19 -409 -77 -595 -153 -68 -28 -258 -130 -500
-270 l-390 -225 -3 -292 -2 -292 52 30 c29 17 276 152 549 300 516 281 543
293 724 326 467 86 956 -5 1375 -257 156 -93 804 -578 1105 -826 582 -479
1201 -1059 1658 -1551 257 -277 394 -411 454 -443 73 -39 192 -67 282 -67 174
1 325 70 439 200 l43 49 -264 293 c-682 755 -1455 1450 -2272 2044 -314 228
-706 488 -1048 693 -320 192 -672 332 -1042 413 -121 27 -163 31 -315 34 -96
1 -209 -1 -250 -6z"/>
<path d="M31745 19794 c-392 -59 -847 -226 -1212 -445 -1225 -736 -2349 -1662
-3320 -2737 l-264 -293 43 -49 c114 -130 265 -199 439 -200 90 0 209 28 282
67 60 32 197 166 454 443 457 492 1076 1072 1658 1551 301 248 949 733 1105
826 354 212 760 313 1145 283 163 -12 270 -29 384 -61 54 -15 203 -91 570
-291 273 -148 520 -283 549 -300 l52 -30 -2 292 -3 292 -390 225 c-408 236
-519 289 -725 349 -196 56 -322 75 -540 79 -107 2 -208 1 -225 -1z"/>
<path d="M5210 19010 c-83 -11 -198 -45 -297 -88 -71 -31 -1079 -615 -1105
-641 -5 -4 -58 -1327 -58 -1446 0 -3 62 33 138 79 528 320 965 496 1322 532
418 41 717 -20 1045 -215 264 -156 65 31 3283 -3083 l1382 -1338 1 -2853 0
-2852 707 -719 707 -720 6 160 c4 87 7 263 8 390 l1 231 -454 428 c-249 235
-462 442 -472 459 -73 120 -72 268 3 355 55 64 83 76 193 75 80 0 102 -3 140
-23 29 -15 145 -123 328 -304 l282 -282 0 227 0 226 -447 421 c-247 232 -464
441 -483 465 -88 112 -94 281 -13 375 55 64 83 76 193 75 80 0 102 -3 140 -23
29 -15 148 -126 338 -314 l292 -292 0 187 0 187 -457 430 c-252 237 -474 451
-493 475 -88 112 -94 281 -13 375 55 64 83 76 193 75 80 0 102 -3 140 -23 29
-15 149 -127 342 -319 189 -188 299 -291 301 -281 3 7 21 1015 41 2239 20
1224 40 2331 43 2461 l6 236 -912 857 -912 857 -59 -53 c-159 -140 -396 -220
-605 -203 -172 14 -366 95 -485 203 -33 29 -123 123 -202 210 -448 492 -1108
1127 -1623 1563 -176 148 -758 608 -900 710 -296 213 -620 368 -942 449 -72
17 -199 39 -304 50 -188 21 -246 22 -339 10z"/>
<path d="M31884 19000 c-426 -50 -839 -218 -1229 -499 -142 -102 -724 -562
-900 -710 -515 -436 -1175 -1071 -1623 -1563 -79 -87 -169 -181 -202 -210
-119 -108 -313 -189 -485 -203 -209 -17 -446 63 -605 203 l-59 53 -912 -857
-912 -857 6 -236 c3 -130 23 -1237 43 -2461 20 -1224 38 -2232 41 -2239 2 -10
112 93 301 281 193 192 313 304 342 319 38 20 60 23 140 23 110 1 138 -11 193
-75 81 -94 75 -263 -13 -375 -19 -24 -241 -238 -492 -475 l-458 -430 0 -187 0
-187 293 292 c189 188 308 299 337 314 38 20 60 23 140 23 110 1 138 -11 193
-75 81 -94 75 -263 -13 -375 -19 -24 -236 -233 -482 -465 l-448 -421 0 -226 0
-227 283 282 c182 181 298 289 327 304 38 20 60 23 140 23 110 1 138 -11 193
-75 75 -87 76 -235 3 -355 -10 -17 -223 -224 -472 -459 l-454 -428 1 -231 c1
-127 4 -303 8 -390 l6 -160 707 720 707 719 0 2852 1 2853 1383 1338 c2565
2482 2939 2842 3046 2925 58 44 164 116 236 158 328 195 627 256 1045 215 357
-36 794 -212 1323 -532 75 -46 137 -82 137 -79 0 119 -53 1442 -58 1446 -26
26 -1034 610 -1106 641 -209 92 -372 111 -652 78z"/>
</g>
</svg>
